<?xml version="1.0" standalone="no"?>
<!DOCTYPE svg PUBLIC "-//W3C//DTD SVG 20010904//EN"
 "http://www.w3.org/TR/2001/REC-SVG-20010904/DTD/svg10.dtd">
<svg version="1.0" xmlns="http://www.w3.org/2000/svg"
 width="148.000000pt" height="148.000000pt" viewBox="0 0 148.000000 148.000000"
 preserveAspectRatio="xMidYMid meet">
<metadata>
Created by potrace 1.14, written by Peter Selinger 2001-2017
</metadata>
<g transform="translate(0.000000,148.000000) scale(0.100000,-0.100000)"
fill="#000000" stroke="none">
<path d="M1024 1373 c4 -21 12 -60 18 -87 l12 -48 -44 -39 c-25 -21 -47 -38
-50 -39 -3 0 -21 27 -39 60 -19 33 -38 60 -42 60 -4 0 -35 -24 -68 -52 -50
-44 -64 -62 -76 -105 -8 -28 -15 -56 -15 -61 0 -6 -32 -25 -70 -43 -39 -18
-74 -38 -78 -44 -4 -7 -31 -15 -60 -19 l-53 -7 -28 61 c-23 52 -34 64 -70 81
-24 10 -47 16 -52 13 -12 -7 -1 -77 22 -137 9 -26 43 -93 74 -147 63 -110 95
-199 95 -264 0 -43 28 -107 50 -114 7 -3 3 8 -8 24 -13 18 -25 57 -31 106 -12
88 -38 159 -88 242 -20 32 -47 81 -60 108 -26 54 -56 168 -44 168 5 0 23 -5
41 -11 25 -9 38 -24 59 -68 39 -83 34 -79 90 -67 71 14 97 1 105 -57 4 -25 16
-53 27 -63 12 -11 17 -25 13 -38 -3 -12 16 15 43 59 l49 80 71 9 c67 9 72 11
87 42 24 52 83 111 116 117 21 5 31 14 37 34 12 46 9 124 -8 191 -9 34 -13 62
-10 62 13 0 73 -110 88 -160 10 -34 14 -81 11 -135 -3 -78 -6 -90 -58 -191
-62 -121 -67 -134 -52 -119 5 6 33 53 61 105 82 155 88 283 21 415 -30 58 -72
115 -86 115 -3 0 -3 -17 0 -37z m-109 -171 c17 -28 35 -51 41 -52 6 0 31 16
55 35 24 19 45 31 46 27 2 -4 -1 -27 -5 -52 -6 -33 -13 -46 -27 -49 -35 -6
-76 -42 -112 -98 -38 -60 -37 -59 -113 -68 -60 -6 -75 -19 -106 -87 -9 -21
-22 -38 -29 -38 -15 0 -32 35 -40 82 -4 24 -14 42 -27 49 -27 14 -16 25 64 60
l63 28 18 63 c15 53 26 71 70 110 29 26 57 46 62 45 6 -2 24 -26 40 -55z"/>
<path d="M451 904 c0 -11 3 -14 6 -6 3 7 2 16 -1 19 -3 4 -6 -2 -5 -13z"/>
<path d="M936 487 c-3 -13 -20 -30 -38 -39 -22 -11 -27 -17 -15 -17 22 -1 67
42 67 64 0 22 -7 18 -14 -8z"/>
<path d="M660 430 c0 -6 28 -10 64 -10 36 0 68 5 71 10 4 6 -20 10 -64 10 -41
0 -71 -4 -71 -10z"/>
<path d="M581 392 c-6 -11 -6 -24 1 -35 6 -12 6 -22 -1 -31 -6 -7 -8 -16 -4
-20 4 -4 7 -26 8 -49 0 -38 3 -43 31 -52 17 -5 31 -14 31 -20 0 -21 55 -50 96
-50 41 0 116 39 102 53 -3 3 9 11 27 16 l33 11 1 90 c1 57 -2 93 -10 97 -6 4
-77 8 -158 8 -131 0 -148 -2 -157 -18z m309 -12 c0 -5 -4 -10 -10 -10 -5 0
-10 5 -10 10 0 6 5 10 10 10 6 0 10 -4 10 -10z m-36 -16 c9 -3 16 -12 16 -20
0 -11 -23 -14 -113 -14 -63 0 -117 3 -120 7 -4 3 -2 12 4 20 12 14 181 19 213
7z m-36 -91 c-3 -15 -17 -18 -87 -21 -46 -2 -88 1 -94 7 -21 21 7 31 94 31 81
0 90 -2 87 -17z m67 -43 c-3 -5 -11 -10 -16 -10 -6 0 -7 5 -4 10 3 6 11 10 16
10 6 0 7 -4 4 -10z m-75 -60 c0 -5 -4 -10 -9 -10 -5 0 -18 -3 -28 -6 -16 -5
-16 -4 1 10 23 18 36 20 36 6z"/>
</g>
</svg>
